<svg xmlns="http://www.w3.org/2000/svg" width="60" height="61" viewBox="0 0 60 61" fill="none"><path opacity="0.3" d="M51.2106 52.0098C39.5776 63.6676 20.7174 63.7418 8.98539 52.2326C17.277 60.3262 30.5682 60.2519 38.7856 52.0346C47.0524 43.743 47.0524 30.3032 38.7608 22.0363C30.4692 13.7447 17.0295 13.7695 8.76263 22.0611C0.570058 30.2537 0.520556 43.5202 8.58938 51.8118C-2.91983 40.0798 -2.84558 21.269 8.78738 9.6113C20.4946 -2.1207 39.4786 -2.1207 51.2106 9.58655C62.9178 21.2938 62.9178 40.3026 51.2106 52.0098Z" fill="#4863F7"></path><path opacity="0.6" d="M38.7862 52.0106C30.5689 60.228 17.2776 60.3022 8.98597 52.2086C8.91172 52.1344 8.86222 52.0849 8.78797 52.0106L8.76322 51.9859C13.6392 56.8371 21.51 56.8371 26.3859 51.9859C31.2371 47.1099 31.2371 39.2391 26.3859 34.3631C21.51 29.5367 13.6144 29.5367 8.76322 34.3879C3.93677 39.2143 3.91201 47.0109 8.66421 51.8869C8.66421 51.8869 8.66421 51.8869 8.63946 51.8621C8.63946 51.8621 8.63946 51.8621 8.61471 51.8374L8.58996 51.8126L8.56521 51.7879C0.521123 43.521 0.570626 30.2545 8.78797 22.0371C17.0796 13.7455 30.4946 13.7455 38.7862 22.0124C47.0778 30.304 47.0778 43.7438 38.7862 52.0106Z" fill="#4863F7"></path><path opacity="0.4" d="M8.76061 52.0088C8.7115 51.9597 8.66239 51.9106 8.61328 51.8615L8.63784 51.886C8.68695 51.9351 8.73605 51.9843 8.76061 52.0088Z" fill="#4863F7"></path><path d="M26.3868 52.0096C21.5356 56.8856 13.64 56.8856 8.76405 52.0096C8.71455 51.9601 8.68979 51.9354 8.64029 51.8859C3.8881 47.0099 3.91285 39.2133 8.7393 34.3868C13.5905 29.5109 21.4861 29.5109 26.362 34.3868C31.2379 39.238 31.2379 47.1336 26.3868 52.0096Z" fill="#4863F7"></path></svg>